<?xml version="1.0" encoding="UTF-8"?>
<svg xmlns="http://www.w3.org/2000/svg" viewBox="0 0 944 246" role="img" aria-label="Murundu — Análises Ambientais">
<path fill="#231406" fill-rule="evenodd" d="M 775.57,9.00 C 780.11,9.00 797.80,8.78 802.75,9.00 C 807.70,9.21 804.56,9.59 805.25,10.30 C 805.94,11.01 806.56,-12.45 806.87,13.25 C 807.17,38.95 807.14,138.83 807.09,164.50 C 807.04,190.17 806.84,166.55 806.57,167.25 C 806.31,167.95 805.96,168.28 805.50,168.70 C 805.04,169.12 804.37,169.52 803.79,169.75 C 803.21,169.98 804.63,170.00 802.00,170.09 C 799.37,170.17 792.29,170.30 788.00,170.25 C 783.71,170.20 778.54,170.08 776.25,169.79 C 773.96,169.50 774.78,169.01 774.25,168.54 C 773.72,168.08 773.33,168.01 773.08,167.00 C 772.83,165.99 772.77,162.50 772.77,162.50 C 772.77,162.50 772.25,162.12 772.25,162.12 C 772.25,162.12 768.38,165.28 766.50,166.51 C 764.62,167.74 762.90,168.66 760.95,169.50 C 758.99,170.34 756.78,171.03 754.75,171.57 C 752.72,172.11 751.04,172.48 748.75,172.73 C 746.46,172.99 743.71,173.12 741.00,173.11 C 738.29,173.11 734.88,172.95 732.50,172.70 C 730.12,172.45 728.73,172.14 726.75,171.61 C 724.77,171.07 722.95,170.50 720.62,169.50 C 718.28,168.50 715.06,166.94 712.75,165.62 C 710.44,164.31 708.69,163.13 706.75,161.61 C 704.81,160.09 702.83,158.33 701.08,156.50 C 699.33,154.67 697.56,152.45 696.25,150.66 C 694.94,148.86 694.41,148.06 693.20,145.75 C 691.99,143.44 690.01,139.27 689.00,136.81 C 687.99,134.35 687.80,133.55 687.16,131.00 C 686.53,128.45 685.59,124.62 685.20,121.50 C 684.81,118.38 684.82,115.46 684.82,112.25 C 684.82,109.04 684.98,104.92 685.22,102.25 C 685.46,99.58 685.41,99.29 686.24,96.25 C 687.06,93.21 689.05,87.08 690.19,84.00 C 691.33,80.92 691.89,79.83 693.07,77.75 C 694.24,75.67 695.51,73.75 697.24,71.50 C 698.97,69.25 701.50,66.16 703.46,64.25 C 705.42,62.34 706.74,61.56 709.00,60.06 C 711.26,58.56 714.82,56.41 717.03,55.25 C 719.23,54.09 720.05,53.78 722.25,53.08 C 724.45,52.38 727.21,51.55 730.25,51.07 C 733.29,50.59 737.46,50.21 740.50,50.20 C 743.54,50.20 745.83,50.54 748.50,51.04 C 751.17,51.53 753.79,52.16 756.50,53.17 C 759.21,54.17 762.47,55.67 764.75,57.05 C 767.03,58.44 769.15,60.76 770.15,61.50 C 771.15,62.24 770.75,61.48 770.75,61.48 C 770.75,61.48 771.22,56.79 771.31,49.00 C 771.40,41.21 771.17,20.88 771.29,14.75 C 771.42,8.62 771.77,12.90 772.06,12.25 C 772.34,11.60 772.43,11.42 773.00,10.88 C 773.57,10.34 775.07,9.33 775.50,9.02 C 775.93,8.71 771.02,9.00 775.57,9.00 Z M 24.49,9.25 C 29.41,9.22 48.37,9.00 53.75,9.14 C 59.13,9.28 55.96,9.72 56.75,10.11 C 57.54,10.49 58.00,10.93 58.50,11.45 C 59.00,11.96 58.50,10.77 59.75,13.19 C 61.00,15.61 63.51,21.26 66.00,25.98 C 68.49,30.70 72.50,37.34 74.67,41.50 C 76.83,45.66 76.34,45.79 79.00,50.91 C 81.66,56.04 87.27,65.78 90.62,72.25 C 93.97,78.72 97.16,85.96 99.10,89.75 C 101.04,93.54 101.60,94.05 102.25,95.01 C 102.90,95.96 103.00,95.46 103.00,95.46 C 103.00,95.46 103.08,95.91 103.70,95.00 C 104.33,94.09 105.50,92.34 106.75,90.00 C 108.00,87.67 108.51,85.95 111.18,81.00 C 113.85,76.05 117.27,70.44 122.75,60.28 C 128.23,50.11 139.97,27.67 144.04,20.00 C 148.12,12.33 146.33,15.66 147.20,14.25 C 148.07,12.84 148.37,12.34 149.25,11.56 C 150.13,10.78 151.38,9.99 152.50,9.59 C 153.62,9.19 151.08,9.23 156.00,9.15 C 160.92,9.06 177.25,8.94 182.00,9.06 C 186.75,9.18 183.92,9.60 184.50,9.85 C 185.08,10.11 185.11,10.22 185.50,10.62 C 185.89,11.02 186.49,11.52 186.85,12.25 C 187.21,12.98 185.62,-10.25 187.65,15.00 C 189.68,40.25 197.22,138.38 199.04,163.75 C 200.87,189.12 198.86,166.42 198.60,167.25 C 198.35,168.08 197.93,168.29 197.50,168.71 C 197.07,169.13 197.67,169.50 196.00,169.75 C 194.33,170.01 192.21,170.17 187.50,170.23 C 182.79,170.29 171.54,170.38 167.75,170.12 C 163.96,169.87 165.56,169.33 164.75,168.73 C 163.94,168.12 163.33,167.25 162.90,166.50 C 162.47,165.75 163.38,178.12 162.19,164.25 C 160.99,150.38 156.90,97.67 155.72,83.25 C 154.54,68.83 155.31,78.82 155.10,77.75 C 154.90,76.68 154.50,76.84 154.50,76.84 C 154.50,76.84 149.65,84.89 147.00,89.79 C 144.35,94.69 142.06,99.84 138.58,106.25 C 135.10,112.66 129.27,122.50 126.12,128.25 C 122.97,134.00 120.94,138.40 119.67,140.75 C 118.40,143.10 118.99,141.84 118.50,142.32 C 118.01,142.81 117.71,143.29 116.75,143.67 C 115.79,144.04 116.75,144.43 112.75,144.56 C 108.75,144.69 96.62,144.59 92.75,144.43 C 88.88,144.27 90.47,144.05 89.50,143.60 C 88.53,143.16 87.66,142.48 86.94,141.75 C 86.23,141.02 86.87,142.20 85.21,139.25 C 83.56,136.30 82.08,133.76 77.00,124.02 C 71.92,114.29 58.83,88.64 54.75,80.83 C 50.67,73.01 53.04,77.80 52.50,77.13 C 51.96,76.47 51.50,76.84 51.50,76.84 C 51.50,76.84 51.32,75.81 50.92,79.50 C 50.53,83.19 49.52,93.96 49.13,99.00 C 48.74,104.04 49.25,101.25 48.59,109.75 C 47.94,118.25 45.87,141.00 45.19,150.00 C 44.51,159.00 44.75,160.87 44.51,163.75 C 44.27,166.63 44.22,166.30 43.75,167.25 C 43.28,168.21 42.51,169.00 41.71,169.50 C 40.92,170.00 43.79,170.13 39.00,170.24 C 34.21,170.34 17.62,170.20 13.00,170.13 C 8.38,170.05 11.75,169.99 11.25,169.79 C 10.75,169.59 10.52,169.56 10.00,168.93 C 9.48,168.29 8.42,167.03 8.11,166.00 C 7.80,164.97 7.54,170.46 8.13,162.75 C 8.73,155.04 10.69,133.33 11.69,119.75 C 12.69,106.17 12.82,98.71 14.15,81.25 C 15.48,63.79 18.69,26.42 19.69,15.00 C 20.69,3.58 19.88,13.38 20.14,12.75 C 20.39,12.12 20.55,11.82 21.23,11.25 C 21.92,10.68 23.71,9.67 24.25,9.34 C 24.79,9.01 19.57,9.28 24.49,9.25 Z M 620.54,50.25 C 621.71,50.24 625.01,50.01 627.50,50.17 C 629.99,50.33 632.60,50.58 635.50,51.21 C 638.40,51.85 642.30,53.02 644.89,54.00 C 647.47,54.98 648.86,55.72 651.00,57.09 C 653.14,58.46 655.96,60.69 657.75,62.21 C 659.54,63.72 660.27,64.44 661.75,66.19 C 663.23,67.95 665.31,70.57 666.63,72.75 C 667.95,74.93 668.69,76.50 669.68,79.25 C 670.66,82.00 671.87,85.71 672.56,89.25 C 673.26,92.79 673.64,87.96 673.84,100.50 C 674.05,113.04 673.84,153.50 673.80,164.50 C 673.77,175.50 673.85,165.85 673.63,166.50 C 673.41,167.15 672.98,167.87 672.50,168.40 C 672.02,168.94 671.42,169.42 670.75,169.70 C 670.08,169.99 673.12,170.05 668.50,170.11 C 663.88,170.18 647.62,170.21 643.00,170.11 C 638.38,170.00 641.42,169.89 640.75,169.50 C 640.09,169.11 639.42,168.33 638.99,167.75 C 638.55,167.17 638.31,166.54 638.14,166.00 C 637.97,165.46 637.99,174.38 637.98,164.50 C 637.96,154.62 638.14,117.45 638.06,106.75 C 637.98,96.05 637.72,101.82 637.50,100.31 C 637.28,98.80 637.22,98.81 636.75,97.68 C 636.28,96.54 635.70,94.95 634.66,93.50 C 633.62,92.05 632.15,90.24 630.50,89.01 C 628.85,87.78 626.33,86.76 624.75,86.10 C 623.17,85.45 622.21,85.31 621.00,85.09 C 619.79,84.87 619.04,84.79 617.50,84.77 C 615.96,84.75 613.12,84.85 611.75,84.99 C 610.38,85.13 610.67,84.96 609.25,85.62 C 607.83,86.28 604.96,87.66 603.25,88.97 C 601.54,90.29 600.04,92.16 599.00,93.50 C 597.96,94.83 597.52,95.87 597.02,97.00 C 596.51,98.13 596.26,98.71 595.96,100.25 C 595.67,101.79 595.38,95.54 595.25,106.25 C 595.11,116.96 595.28,154.29 595.14,164.50 C 594.99,174.71 594.86,166.66 594.38,167.50 C 593.90,168.34 593.02,169.09 592.25,169.53 C 591.48,169.96 594.29,169.99 589.75,170.10 C 585.21,170.21 569.58,170.30 565.00,170.18 C 560.42,170.06 562.90,169.66 562.25,169.38 C 561.60,169.10 561.47,168.93 561.09,168.50 C 560.72,168.07 560.24,167.54 560.00,166.79 C 559.76,166.04 559.69,181.97 559.65,164.00 C 559.62,146.03 559.70,76.83 559.78,59.00 C 559.85,41.17 559.90,57.62 560.09,57.00 C 560.29,56.38 560.59,55.74 560.95,55.25 C 561.31,54.76 561.62,54.43 562.25,54.07 C 562.88,53.71 560.21,53.24 564.75,53.10 C 569.29,52.97 585.03,53.14 589.50,53.29 C 593.97,53.43 590.88,53.53 591.55,54.00 C 592.22,54.47 593.09,55.03 593.50,56.11 C 593.91,57.20 594.02,60.50 594.02,60.50 C 594.02,60.50 594.75,60.97 594.75,60.97 C 594.75,60.97 597.67,58.35 599.75,57.04 C 601.83,55.74 604.83,54.12 607.25,53.12 C 609.67,52.13 612.04,51.57 614.25,51.09 C 616.46,50.61 619.45,50.39 620.50,50.25 C 621.55,50.11 619.38,50.26 620.54,50.25 Z M 411.31,52.50 C 412.15,52.49 415.07,52.36 416.25,52.44 C 417.43,52.52 417.79,52.74 418.38,53.00 C 418.96,53.26 419.37,53.58 419.77,54.00 C 420.16,54.42 420.53,52.25 420.72,55.50 C 420.92,58.75 420.95,68.83 420.92,73.50 C 420.88,78.17 420.79,81.50 420.51,83.50 C 420.22,85.50 419.75,84.99 419.21,85.50 C 418.67,86.01 419.53,86.41 417.25,86.58 C 414.97,86.75 408.33,86.46 405.50,86.54 C 402.67,86.62 401.58,86.82 400.25,87.06 C 398.92,87.31 398.95,87.33 397.49,88.00 C 396.04,88.67 393.21,90.07 391.50,91.07 C 389.79,92.07 388.30,93.18 387.21,94.00 C 386.11,94.82 385.81,95.00 384.95,96.00 C 384.09,97.00 382.85,98.62 382.03,100.00 C 381.21,101.38 380.84,102.21 380.02,104.25 C 379.21,106.29 377.77,109.88 377.15,112.25 C 376.53,114.62 376.48,109.58 376.30,118.50 C 376.11,127.42 376.34,157.40 376.04,165.75 C 375.74,174.10 375.01,167.98 374.50,168.62 C 373.99,169.27 373.62,169.40 373.00,169.65 C 372.38,169.90 375.46,170.08 370.75,170.14 C 366.04,170.20 349.50,170.26 344.75,170.02 C 340.00,169.78 342.90,169.29 342.25,168.70 C 341.60,168.11 341.17,167.32 340.88,166.50 C 340.59,165.68 340.60,167.50 340.51,163.75 C 340.42,160.00 340.36,160.62 340.36,144.00 C 340.36,127.38 340.41,78.55 340.52,64.00 C 340.62,49.45 340.59,58.35 341.00,56.73 C 341.41,55.10 342.21,54.85 343.00,54.25 C 343.80,53.65 341.25,53.28 345.75,53.13 C 350.25,52.98 365.58,53.23 370.00,53.36 C 374.42,53.48 371.50,53.44 372.25,53.88 C 373.00,54.31 373.99,55.23 374.50,55.96 C 375.01,56.69 375.09,55.95 375.29,58.25 C 375.50,60.55 375.58,67.68 375.74,69.75 C 375.90,71.82 376.25,70.65 376.25,70.65 C 376.25,70.65 380.33,65.46 383.00,63.21 C 385.67,60.96 389.46,58.67 392.25,57.16 C 395.04,55.64 397.71,54.78 399.75,54.10 C 401.79,53.43 402.58,53.36 404.50,53.09 C 406.42,52.82 410.11,52.60 411.25,52.50 C 412.39,52.40 410.48,52.51 411.31,52.50 Z M 216.21,53.25 C 220.33,53.23 236.16,52.95 240.75,53.12 C 245.34,53.29 242.94,53.73 243.75,54.25 C 244.55,54.77 245.16,55.42 245.59,56.25 C 246.03,57.08 246.24,49.21 246.34,59.25 C 246.43,69.29 246.03,105.71 246.16,116.50 C 246.29,127.29 246.79,122.29 247.11,124.00 C 247.43,125.71 247.58,125.70 248.07,126.75 C 248.55,127.80 249.01,128.94 250.00,130.27 C 250.99,131.60 252.41,133.47 254.00,134.72 C 255.59,135.97 257.66,137.07 259.53,137.75 C 261.41,138.43 263.59,138.65 265.25,138.80 C 266.91,138.96 267.96,138.83 269.50,138.66 C 271.04,138.49 272.67,138.43 274.50,137.78 C 276.33,137.12 279.12,135.56 280.50,134.72 C 281.88,133.88 282.12,133.45 282.79,132.75 C 283.47,132.05 283.73,132.00 284.54,130.50 C 285.34,129.00 287.02,125.54 287.61,123.75 C 288.20,121.96 288.01,130.50 288.10,119.75 C 288.18,109.00 287.92,69.95 288.11,59.25 C 288.31,48.55 288.77,56.43 289.25,55.56 C 289.73,54.68 290.17,54.40 291.00,54.00 C 291.83,53.59 289.62,53.25 294.25,53.12 C 298.88,53.00 314.25,53.07 318.75,53.24 C 323.25,53.40 320.61,53.76 321.25,54.10 C 321.89,54.43 322.22,54.77 322.60,55.25 C 322.99,55.73 323.35,56.38 323.56,57.00 C 323.77,57.62 323.80,41.04 323.86,59.00 C 323.92,76.96 323.97,146.83 323.93,164.75 C 323.89,182.67 323.87,165.88 323.61,166.50 C 323.35,167.12 322.84,167.97 322.36,168.50 C 321.89,169.03 321.39,169.43 320.75,169.69 C 320.11,169.95 323.08,170.03 318.50,170.07 C 313.92,170.10 297.67,170.01 293.25,169.90 C 288.83,169.80 292.50,169.78 292.00,169.42 C 291.50,169.06 290.67,168.37 290.25,167.75 C 289.83,167.14 289.58,166.33 289.45,165.75 C 289.33,165.17 289.49,164.25 289.49,164.25 C 289.49,164.25 288.75,163.80 288.75,163.80 C 288.75,163.80 285.96,165.95 284.75,166.73 C 283.54,167.51 283.53,167.68 281.48,168.50 C 279.44,169.32 275.41,170.95 272.50,171.68 C 269.59,172.41 267.67,172.73 264.00,172.88 C 260.33,173.03 254.12,172.98 250.50,172.58 C 246.88,172.19 245.04,171.51 242.25,170.51 C 239.46,169.52 236.12,167.93 233.75,166.61 C 231.38,165.29 229.96,164.23 228.00,162.59 C 226.04,160.95 223.82,158.91 222.00,156.77 C 220.18,154.63 218.54,152.38 217.08,149.75 C 215.62,147.12 214.07,143.12 213.23,141.00 C 212.39,138.88 212.46,139.33 212.06,137.00 C 211.67,134.67 211.06,140.04 210.84,127.00 C 210.62,113.96 210.68,70.46 210.73,58.75 C 210.78,47.04 210.92,57.33 211.14,56.75 C 211.36,56.17 211.66,55.70 212.06,55.25 C 212.45,54.80 212.84,54.39 213.50,54.06 C 214.16,53.73 215.55,53.40 216.00,53.27 C 216.45,53.13 212.08,53.27 216.21,53.25 Z M 437.52,53.25 C 441.73,53.26 458.17,53.14 462.75,53.29 C 467.33,53.44 464.33,53.69 465.00,54.14 C 465.67,54.60 466.35,55.18 466.75,56.03 C 467.15,56.88 467.27,48.84 467.43,59.25 C 467.59,69.66 467.57,107.75 467.72,118.50 C 467.86,129.25 468.10,122.48 468.32,123.75 C 468.53,125.02 468.55,125.10 469.00,126.15 C 469.45,127.19 469.96,128.59 471.00,130.01 C 472.04,131.44 473.71,133.41 475.25,134.69 C 476.79,135.97 478.42,136.98 480.25,137.67 C 482.08,138.37 484.21,138.72 486.25,138.85 C 488.29,138.99 490.88,138.67 492.50,138.47 C 494.12,138.27 494.79,138.08 496.00,137.64 C 497.21,137.20 498.32,136.91 499.75,135.84 C 501.18,134.77 503.23,133.06 504.58,131.25 C 505.93,129.44 507.20,126.71 507.86,125.00 C 508.53,123.29 508.43,122.42 508.57,121.00 C 508.72,119.58 508.72,126.88 508.73,116.50 C 508.75,106.12 508.61,68.71 508.67,58.75 C 508.72,48.79 508.86,57.33 509.07,56.75 C 509.29,56.17 509.56,55.71 509.96,55.25 C 510.36,54.79 510.80,54.35 511.48,54.00 C 512.15,53.65 509.62,53.30 514.00,53.16 C 518.38,53.01 533.29,53.01 537.75,53.14 C 542.21,53.28 539.97,53.58 540.75,53.97 C 541.53,54.36 541.94,54.83 542.43,55.50 C 542.92,56.17 543.46,56.96 543.69,58.00 C 543.93,59.04 543.82,43.83 543.83,61.75 C 543.84,79.67 543.80,148.00 543.75,165.50 C 543.70,183.00 543.77,166.25 543.55,166.75 C 543.32,167.25 542.85,168.02 542.39,168.50 C 541.92,168.98 541.36,169.36 540.75,169.64 C 540.14,169.92 543.21,170.12 538.75,170.17 C 534.29,170.23 518.35,170.08 514.00,169.96 C 509.65,169.85 513.08,169.77 512.62,169.50 C 512.16,169.23 511.67,168.85 511.25,168.35 C 510.83,167.85 510.35,167.18 510.11,166.50 C 509.86,165.82 509.75,164.25 509.75,164.25 C 509.75,164.25 509.25,164.02 509.25,164.02 C 509.25,164.02 504.79,167.23 502.00,168.53 C 499.21,169.83 495.42,171.09 492.50,171.83 C 489.58,172.56 487.75,172.81 484.50,172.96 C 481.25,173.11 476.46,173.09 473.00,172.70 C 469.54,172.31 466.54,171.51 463.75,170.64 C 460.96,169.77 458.54,168.68 456.25,167.50 C 453.96,166.32 452.00,165.08 450.00,163.57 C 448.00,162.06 446.05,160.47 444.25,158.46 C 442.45,156.45 440.55,153.70 439.20,151.50 C 437.85,149.30 437.03,147.25 436.16,145.25 C 435.28,143.25 434.63,142.25 433.95,139.50 C 433.26,136.75 432.35,142.21 432.05,128.75 C 431.75,115.29 431.90,71.00 432.13,58.75 C 432.36,46.50 432.96,56.04 433.44,55.25 C 433.91,54.46 434.32,54.37 435.00,54.03 C 435.68,53.70 437.08,53.38 437.50,53.25 C 437.92,53.12 433.32,53.24 437.52,53.25 Z M 834.88,53.25 C 838.00,53.25 850.02,53.08 853.50,53.23 C 856.98,53.37 855.05,53.61 855.75,54.11 C 856.45,54.62 857.24,55.39 857.69,56.25 C 858.14,57.11 858.31,49.62 858.45,59.25 C 858.59,68.88 858.43,103.46 858.53,114.00 C 858.62,124.54 858.77,120.48 859.01,122.50 C 859.26,124.52 859.50,124.83 860.00,126.15 C 860.50,127.47 861.01,128.98 862.00,130.41 C 862.99,131.85 864.33,133.54 865.91,134.75 C 867.49,135.96 869.53,137.01 871.50,137.67 C 873.47,138.33 876.04,138.55 877.75,138.71 C 879.46,138.87 880.29,138.80 881.75,138.64 C 883.21,138.48 884.95,138.26 886.53,137.75 C 888.11,137.24 890.05,136.27 891.25,135.57 C 892.45,134.86 892.84,134.44 893.75,133.51 C 894.66,132.58 895.88,131.21 896.70,130.00 C 897.51,128.79 898.17,127.34 898.64,126.25 C 899.11,125.16 899.29,124.39 899.50,123.47 C 899.71,122.55 899.79,123.45 899.87,120.75 C 899.95,118.05 899.99,117.50 899.98,107.25 C 899.97,97.00 899.65,67.88 899.83,59.25 C 900.01,50.62 900.58,56.38 901.06,55.50 C 901.55,54.62 902.07,54.39 902.73,54.00 C 903.38,53.61 900.45,53.33 905.00,53.17 C 909.55,53.01 925.37,52.91 930.00,53.05 C 934.63,53.19 931.96,53.42 932.76,54.00 C 933.57,54.58 934.39,55.67 934.82,56.50 C 935.25,57.33 935.27,50.46 935.35,59.00 C 935.43,67.54 935.32,90.92 935.31,107.75 C 935.29,124.58 935.34,150.12 935.24,160.00 C 935.13,169.88 935.01,165.54 934.70,167.00 C 934.39,168.46 934.13,168.26 933.39,168.75 C 932.64,169.24 932.52,169.68 930.25,169.95 C 927.98,170.21 923.79,170.31 919.75,170.33 C 915.71,170.35 908.62,170.20 906.00,170.08 C 903.38,169.97 904.62,169.92 904.00,169.63 C 903.38,169.34 902.73,168.89 902.25,168.33 C 901.77,167.77 901.32,166.97 901.10,166.25 C 900.89,165.53 900.96,164.00 900.96,164.00 C 900.96,164.00 900.25,163.65 900.25,163.65 C 900.25,163.65 896.58,166.49 894.50,167.65 C 892.42,168.81 890.38,169.77 887.75,170.60 C 885.12,171.42 881.29,172.19 878.75,172.59 C 876.21,173.00 874.92,173.01 872.50,173.04 C 870.08,173.06 866.67,172.96 864.25,172.73 C 861.83,172.50 860.21,172.21 858.00,171.67 C 855.79,171.13 853.34,170.49 850.97,169.50 C 848.59,168.51 845.85,167.05 843.75,165.71 C 841.65,164.38 840.27,163.21 838.35,161.50 C 836.44,159.79 833.78,157.30 832.25,155.46 C 830.72,153.63 830.18,152.45 829.17,150.50 C 828.15,148.55 827.04,146.24 826.17,143.75 C 825.31,141.26 824.52,138.06 824.00,135.56 C 823.48,133.06 823.19,141.59 823.05,128.75 C 822.90,115.91 822.95,70.67 823.14,58.50 C 823.32,46.33 823.66,56.50 824.16,55.75 C 824.66,55.00 825.45,54.40 826.14,54.00 C 826.82,53.60 826.81,53.46 828.25,53.34 C 829.69,53.21 833.65,53.27 834.75,53.25 C 835.85,53.24 831.75,53.25 834.88,53.25 Z M 744.25,84.50 C 743.42,84.60 741.11,84.70 739.50,85.12 C 737.89,85.53 736.14,86.16 734.60,87.00 C 733.06,87.84 731.68,88.93 730.25,90.18 C 728.82,91.43 727.28,92.86 726.05,94.50 C 724.82,96.14 723.62,98.38 722.88,100.00 C 722.15,101.62 721.98,102.54 721.63,104.25 C 721.28,105.96 720.87,108.33 720.76,110.25 C 720.65,112.17 720.75,114.02 720.96,115.75 C 721.17,117.48 721.64,119.31 722.00,120.64 C 722.36,121.97 722.29,122.23 723.13,123.75 C 723.96,125.27 725.86,128.24 727.00,129.75 C 728.15,131.26 728.87,131.83 730.00,132.83 C 731.13,133.83 732.47,134.90 733.80,135.75 C 735.13,136.60 736.72,137.40 738.00,137.91 C 739.28,138.41 739.62,138.61 741.50,138.79 C 743.38,138.97 747.38,139.04 749.25,139.01 C 751.12,138.98 751.79,138.81 752.75,138.62 C 753.71,138.44 753.67,138.53 755.00,137.89 C 756.33,137.25 759.17,135.88 760.75,134.80 C 762.33,133.71 763.35,132.62 764.50,131.37 C 765.65,130.11 766.74,128.56 767.62,127.25 C 768.51,125.94 769.14,125.25 769.79,123.50 C 770.45,121.75 771.28,119.58 771.57,116.75 C 771.87,113.92 771.73,108.92 771.57,106.50 C 771.42,104.08 771.12,103.71 770.65,102.25 C 770.18,100.79 769.76,99.39 768.75,97.72 C 767.74,96.05 765.79,93.66 764.58,92.25 C 763.37,90.84 762.64,90.11 761.50,89.24 C 760.36,88.36 759.21,87.70 757.75,87.02 C 756.29,86.34 754.96,85.57 752.75,85.15 C 750.54,84.73 745.92,84.59 744.50,84.48 C 743.08,84.38 745.08,84.39 744.25,84.50 Z"/>
<path fill="#AE5A04" fill-rule="evenodd" d="M 224.28,201.75 C 224.44,201.77 225.25,201.87 225.25,201.87 C 225.25,201.87 225.35,202.50 225.35,202.50 C 225.35,202.50 223.25,205.08 222.57,205.75 C 221.89,206.42 221.85,206.31 221.25,206.51 C 220.65,206.71 219.49,206.90 219.00,206.94 C 218.51,206.98 218.29,206.75 218.29,206.75 C 218.29,206.75 217.85,206.98 218.34,206.25 C 218.83,205.52 220.60,203.09 221.25,202.36 C 221.90,201.63 221.75,201.97 222.25,201.87 C 222.75,201.77 223.91,201.77 224.25,201.75 C 224.59,201.73 224.11,201.73 224.28,201.75 Z M 317.06,209.75 C 317.65,209.76 319.43,209.60 320.50,209.82 C 321.57,210.04 322.63,210.49 323.50,211.06 C 324.37,211.64 325.19,212.39 325.72,213.25 C 326.25,214.11 326.71,216.25 326.71,216.25 C 326.71,216.25 326.41,216.74 325.75,216.90 C 325.09,217.06 322.75,217.21 322.75,217.21 C 322.75,217.21 321.17,215.38 320.50,214.87 C 319.83,214.36 319.42,214.29 318.75,214.15 C 318.08,214.02 317.29,213.85 316.50,214.08 C 315.71,214.30 314.51,215.01 313.99,215.50 C 313.48,215.99 313.45,216.50 313.40,217.00 C 313.35,217.50 313.38,218.02 313.69,218.50 C 314.00,218.98 314.12,219.44 315.25,219.90 C 316.38,220.35 319.00,220.70 320.50,221.25 C 322.00,221.79 323.23,222.40 324.25,223.15 C 325.27,223.90 326.13,224.78 326.62,225.75 C 327.12,226.72 327.21,227.92 327.22,229.00 C 327.23,230.08 327.07,231.29 326.69,232.25 C 326.32,233.21 325.77,234.03 324.99,234.75 C 324.21,235.47 323.17,236.19 322.00,236.58 C 320.83,236.97 319.33,237.05 318.00,237.09 C 316.67,237.13 315.17,237.07 314.00,236.81 C 312.83,236.55 311.86,236.10 311.00,235.55 C 310.14,234.99 309.41,234.38 308.85,233.50 C 308.30,232.62 307.67,230.25 307.67,230.25 C 307.67,230.25 308.50,229.10 308.50,229.10 C 308.50,229.10 311.75,228.88 311.75,228.88 C 311.75,228.88 313.42,231.25 314.00,231.87 C 314.58,232.49 314.79,232.46 315.25,232.62 C 315.71,232.78 316.00,232.84 316.75,232.83 C 317.50,232.81 318.91,232.84 319.75,232.53 C 320.59,232.23 321.35,231.55 321.76,231.00 C 322.18,230.45 322.26,229.80 322.21,229.25 C 322.17,228.70 321.79,228.07 321.50,227.68 C 321.21,227.30 322.08,227.62 320.50,226.92 C 318.92,226.22 313.76,224.36 312.01,223.50 C 310.27,222.64 310.55,222.42 310.02,221.75 C 309.49,221.08 309.06,220.50 308.85,219.50 C 308.65,218.50 308.59,216.83 308.80,215.75 C 309.01,214.67 309.48,213.78 310.09,213.00 C 310.71,212.22 311.72,211.53 312.50,211.05 C 313.28,210.56 314.00,210.32 314.75,210.11 C 315.50,209.89 316.61,209.81 317.00,209.75 C 317.39,209.69 316.48,209.74 317.06,209.75 Z M 796.06,209.75 C 796.73,209.80 799.01,209.84 800.00,210.06 C 800.99,210.29 801.25,210.50 802.00,211.11 C 802.75,211.72 803.95,212.87 804.50,213.73 C 805.05,214.59 805.30,216.25 805.30,216.25 C 805.30,216.25 805.13,216.78 804.50,216.96 C 803.87,217.14 801.50,217.33 801.50,217.33 C 801.50,217.33 800.06,215.51 799.52,215.00 C 798.98,214.49 799.02,214.42 798.27,214.25 C 797.51,214.08 795.92,213.84 795.00,214.01 C 794.08,214.17 793.22,214.79 792.74,215.25 C 792.25,215.71 792.18,216.23 792.10,216.75 C 792.02,217.27 791.98,217.88 792.25,218.38 C 792.52,218.88 792.33,219.15 793.75,219.77 C 795.17,220.39 799.29,221.53 800.75,222.08 C 802.21,222.64 801.84,222.57 802.50,223.10 C 803.16,223.62 804.19,224.60 804.70,225.25 C 805.22,225.90 805.41,226.42 805.58,227.00 C 805.76,227.58 805.77,228.12 805.77,228.75 C 805.77,229.38 805.78,230.04 805.60,230.75 C 805.41,231.46 805.03,232.36 804.68,233.00 C 804.33,233.64 804.20,233.97 803.50,234.57 C 802.80,235.16 801.67,236.12 800.50,236.57 C 799.33,237.02 797.88,237.25 796.50,237.27 C 795.12,237.28 793.38,236.97 792.25,236.69 C 791.12,236.40 790.58,236.18 789.75,235.57 C 788.92,234.95 787.84,233.89 787.27,233.00 C 786.70,232.11 786.34,230.25 786.34,230.25 C 786.34,230.25 786.56,229.39 787.25,229.17 C 787.94,228.94 790.50,228.91 790.50,228.91 C 790.50,228.91 791.74,231.14 792.24,231.75 C 792.74,232.36 793.00,232.41 793.50,232.60 C 794.00,232.79 794.42,232.89 795.25,232.89 C 796.08,232.88 797.75,232.74 798.50,232.56 C 799.25,232.38 799.40,232.16 799.75,231.82 C 800.10,231.47 800.43,231.05 800.60,230.50 C 800.78,229.95 800.92,229.09 800.78,228.50 C 800.64,227.91 801.40,227.77 799.75,226.94 C 798.10,226.11 792.77,224.45 790.86,223.50 C 788.94,222.55 788.86,222.02 788.25,221.27 C 787.64,220.52 787.35,219.96 787.18,219.00 C 787.01,218.04 786.89,216.64 787.24,215.50 C 787.58,214.36 788.37,213.06 789.25,212.18 C 790.13,211.29 791.38,210.60 792.50,210.20 C 793.62,209.79 795.41,209.83 796.00,209.75 C 796.59,209.68 795.40,209.70 796.06,209.75 Z M 387.53,210.00 C 388.16,209.97 390.17,209.76 391.25,209.80 C 392.33,209.84 393.03,209.84 394.02,210.25 C 395.01,210.66 396.37,211.42 397.18,212.25 C 398.00,213.08 398.63,214.58 398.92,215.25 C 399.22,215.92 399.03,216.00 398.97,216.25 C 398.90,216.50 399.11,216.55 398.53,216.75 C 397.95,216.95 395.50,217.45 395.50,217.45 C 395.50,217.45 393.96,215.47 393.25,214.93 C 392.54,214.40 391.93,214.38 391.27,214.25 C 390.60,214.12 389.92,214.01 389.25,214.14 C 388.58,214.28 387.76,214.63 387.25,215.07 C 386.74,215.50 386.37,216.22 386.19,216.75 C 386.02,217.28 386.03,217.76 386.21,218.25 C 386.38,218.74 385.74,219.03 387.25,219.68 C 388.76,220.34 393.46,221.44 395.25,222.17 C 397.04,222.91 397.28,223.38 398.00,224.10 C 398.72,224.82 399.26,225.39 399.56,226.50 C 399.86,227.61 399.93,229.60 399.80,230.75 C 399.66,231.90 399.30,232.62 398.75,233.42 C 398.20,234.22 397.33,235.00 396.50,235.56 C 395.67,236.12 395.12,236.53 393.75,236.76 C 392.38,237.00 389.83,237.12 388.25,236.97 C 386.67,236.82 385.31,236.39 384.25,235.86 C 383.19,235.32 382.52,234.60 381.91,233.75 C 381.29,232.90 380.54,230.75 380.54,230.75 C 380.54,230.75 381.25,229.18 381.25,229.18 C 381.25,229.18 384.00,228.35 384.00,228.35 C 384.00,228.35 384.25,228.21 384.62,228.75 C 385.00,229.29 385.56,230.92 386.25,231.60 C 386.94,232.28 387.67,232.66 388.75,232.86 C 389.83,233.06 391.74,233.11 392.75,232.80 C 393.76,232.49 394.42,231.72 394.78,231.00 C 395.15,230.28 395.12,229.20 394.95,228.50 C 394.78,227.80 394.28,227.23 393.75,226.78 C 393.22,226.32 393.29,226.32 391.75,225.79 C 390.21,225.26 386.08,224.33 384.50,223.60 C 382.92,222.87 382.79,222.08 382.25,221.38 C 381.71,220.68 381.43,220.26 381.25,219.40 C 381.07,218.55 381.01,217.19 381.16,216.25 C 381.31,215.31 381.59,214.58 382.16,213.75 C 382.73,212.92 383.72,211.87 384.61,211.25 C 385.50,210.63 387.01,210.22 387.50,210.01 C 387.99,209.80 386.91,210.03 387.53,210.00 Z M 616.90,210.00 C 617.06,210.04 617.75,210.25 617.75,210.25 C 617.75,210.25 617.96,210.46 617.99,211.00 C 618.01,211.54 618.04,212.92 617.91,213.50 C 617.79,214.08 617.25,214.47 617.25,214.47 C 617.25,214.47 606.00,214.78 606.00,214.78 C 606.00,214.78 605.71,219.21 605.69,220.25 C 605.68,221.29 605.76,220.82 605.90,221.00 C 606.03,221.18 604.98,221.28 606.50,221.36 C 608.02,221.44 613.39,221.38 615.00,221.48 C 616.61,221.59 616.16,222.00 616.16,222.00 C 616.16,222.00 616.38,223.92 616.27,224.50 C 616.16,225.08 615.50,225.47 615.50,225.47 C 615.50,225.47 606.12,225.75 606.12,225.75 C 606.12,225.75 605.83,230.18 605.85,231.25 C 605.87,232.32 606.06,231.95 606.25,232.14 C 606.44,232.33 605.12,232.29 607.00,232.39 C 608.88,232.50 617.50,232.77 617.50,232.77 C 617.50,232.77 617.87,233.00 617.95,233.50 C 618.04,234.00 618.12,235.22 618.01,235.75 C 617.89,236.28 617.25,236.71 617.25,236.71 C 617.25,236.71 604.42,236.72 601.75,236.69 C 599.08,236.65 601.23,236.50 601.23,236.50 C 601.23,236.50 600.95,239.82 600.95,235.50 C 600.96,231.18 601.25,210.59 601.25,210.59 C 601.25,210.59 599.42,210.34 602.00,210.25 C 604.58,210.15 614.27,210.06 616.75,210.02 C 619.23,209.97 616.73,209.96 616.90,210.00 Z M 135.49,210.25 C 136.16,210.20 138.42,209.95 139.25,210.10 C 140.08,210.25 138.92,207.55 140.50,211.16 C 142.08,214.77 147.13,227.65 148.75,231.75 C 150.36,235.85 150.00,234.96 150.19,235.75 C 150.38,236.54 149.89,236.50 149.89,236.50 C 149.89,236.50 145.34,236.50 145.34,236.50 C 145.34,236.50 143.55,232.22 142.99,231.25 C 142.43,230.28 143.66,230.72 142.00,230.65 C 140.34,230.58 134.64,230.68 133.00,230.82 C 131.36,230.96 132.56,230.68 132.16,231.50 C 131.76,232.32 130.98,234.92 130.60,235.75 C 130.22,236.58 130.65,236.34 129.88,236.50 C 129.12,236.66 126.79,236.74 126.00,236.69 C 125.21,236.65 125.13,236.25 125.13,236.25 C 125.13,236.25 128.39,226.81 130.07,222.50 C 131.76,218.19 134.35,212.44 135.25,210.40 C 136.15,208.35 134.83,210.30 135.49,210.25 Z M 168.72,210.25 C 169.27,210.25 171.03,210.16 171.75,210.29 C 172.47,210.41 171.01,208.24 173.06,211.00 C 175.10,213.76 182.05,224.13 184.00,226.86 C 185.95,229.59 184.75,227.37 184.75,227.37 C 184.75,227.37 185.20,227.00 185.20,227.00 C 185.20,227.00 185.17,213.81 185.35,211.00 C 185.52,208.19 185.64,210.29 186.25,210.15 C 186.86,210.01 188.44,210.08 189.00,210.14 C 189.56,210.20 189.60,210.50 189.60,210.50 C 189.60,210.50 189.92,231.20 189.95,235.50 C 189.97,239.80 189.75,236.31 189.75,236.31 C 189.75,236.31 189.75,236.65 189.00,236.66 C 188.25,236.68 185.25,236.41 185.25,236.41 C 185.25,236.41 177.92,226.34 176.00,223.51 C 174.08,220.69 174.25,220.22 173.75,219.46 C 173.25,218.70 173.00,218.94 173.00,218.94 C 173.00,218.94 172.50,216.91 172.42,219.75 C 172.34,222.59 172.51,236.00 172.51,236.00 C 172.51,236.00 171.88,236.57 171.25,236.69 C 170.62,236.81 169.29,236.76 168.75,236.70 C 168.21,236.64 168.00,236.32 168.00,236.32 C 168.00,236.32 167.86,215.84 167.94,211.50 C 168.02,207.16 168.50,210.28 168.50,210.28 C 168.50,210.28 168.18,210.25 168.72,210.25 Z M 217.42,210.25 C 218.13,210.20 220.65,210.02 221.50,210.07 C 222.35,210.12 220.69,206.27 222.50,210.55 C 224.31,214.83 230.76,231.42 232.39,235.75 C 234.01,240.08 232.25,236.55 232.25,236.55 C 232.25,236.55 227.35,236.50 227.35,236.50 C 227.35,236.50 226.06,233.19 225.58,232.25 C 225.11,231.31 224.50,230.84 224.50,230.84 C 224.50,230.84 217.46,230.69 215.75,230.76 C 214.04,230.82 214.26,231.25 214.26,231.25 C 214.26,231.25 213.12,234.79 212.75,235.66 C 212.38,236.54 212.02,236.50 212.02,236.50 C 212.02,236.50 207.25,236.50 207.25,236.50 C 207.25,236.50 205.47,240.11 207.13,235.75 C 208.80,231.39 215.54,214.61 217.25,210.36 C 218.96,206.11 216.71,210.30 217.42,210.25 Z M 253.35,210.25 C 253.56,210.28 254.50,210.45 254.50,210.45 C 254.50,210.45 254.65,207.70 254.71,211.25 C 254.77,214.80 254.86,231.75 254.86,231.75 C 254.86,231.75 254.19,232.33 256.00,232.49 C 257.81,232.65 265.75,232.70 265.75,232.70 C 265.75,232.70 266.29,232.99 266.42,233.50 C 266.55,234.01 266.54,235.26 266.51,235.75 C 266.49,236.24 266.42,236.27 266.25,236.43 C 266.08,236.59 268.08,236.69 265.50,236.73 C 262.92,236.78 253.34,236.77 250.75,236.69 C 248.16,236.61 249.94,236.25 249.94,236.25 C 249.94,236.25 249.91,215.55 250.05,211.25 C 250.18,206.95 250.22,210.59 250.75,210.43 C 251.28,210.26 252.82,210.30 253.25,210.27 C 253.68,210.24 253.15,210.22 253.35,210.25 Z M 285.21,210.25 C 285.75,210.22 288.25,210.21 288.25,210.21 C 288.25,210.21 288.85,206.99 289.00,211.25 C 289.14,215.51 289.17,231.52 289.12,235.75 C 289.08,239.98 288.75,236.62 288.75,236.62 C 288.75,236.62 285.25,236.68 285.25,236.68 C 285.25,236.68 284.52,239.91 284.40,235.75 C 284.28,231.59 284.45,215.98 284.55,211.75 C 284.65,207.52 284.89,210.62 285.00,210.37 C 285.11,210.12 284.67,210.28 285.21,210.25 Z M 349.53,210.25 C 351.57,210.21 359.56,210.00 361.75,210.04 C 363.94,210.08 362.69,210.50 362.69,210.50 C 362.69,210.50 362.96,212.85 362.88,213.50 C 362.81,214.15 362.25,214.42 362.25,214.42 C 362.25,214.42 351.25,214.82 351.25,214.82 C 351.25,214.82 350.74,219.19 350.78,220.25 C 350.82,221.31 351.50,221.15 351.50,221.15 C 351.50,221.15 358.62,221.16 360.25,221.30 C 361.88,221.43 361.25,221.97 361.25,221.97 C 361.25,221.97 361.41,223.92 361.29,224.50 C 361.16,225.08 360.50,225.46 360.50,225.46 C 360.50,225.46 353.58,225.29 352.00,225.33 C 350.42,225.37 351.00,225.71 351.00,225.71 C 351.00,225.71 350.82,230.18 350.86,231.25 C 350.90,232.32 351.06,231.92 351.25,232.11 C 351.44,232.30 350.12,232.29 352.00,232.41 C 353.88,232.53 362.50,232.81 362.50,232.81 C 362.50,232.81 362.83,233.01 362.91,233.50 C 362.99,233.99 362.99,235.27 362.97,235.75 C 362.94,236.23 362.91,236.20 362.75,236.36 C 362.59,236.51 364.25,236.63 362.00,236.68 C 359.75,236.74 351.75,236.70 349.25,236.67 C 346.75,236.65 347.50,236.65 347.00,236.54 C 346.50,236.42 346.23,236.00 346.23,236.00 C 346.23,236.00 346.10,215.75 346.23,211.50 C 346.36,207.25 346.46,210.73 347.00,210.53 C 347.54,210.32 349.08,210.30 349.50,210.25 C 349.92,210.21 347.49,210.29 349.53,210.25 Z M 449.08,210.25 C 449.87,210.21 452.81,210.01 453.75,210.06 C 454.69,210.12 453.07,206.43 454.75,210.59 C 456.43,214.74 462.35,230.70 463.85,235.00 C 465.35,239.30 463.75,236.37 463.75,236.37 C 463.75,236.37 459.50,236.40 459.50,236.40 C 459.50,236.40 459.29,236.61 458.92,235.75 C 458.54,234.89 457.69,232.09 457.25,231.24 C 456.81,230.39 456.79,230.77 456.25,230.67 C 455.71,230.57 455.58,230.60 454.00,230.63 C 452.42,230.66 448.08,230.70 446.75,230.84 C 445.42,230.99 446.46,230.61 446.04,231.50 C 445.63,232.39 444.25,236.20 444.25,236.20 C 444.25,236.20 441.50,236.52 440.75,236.53 C 440.00,236.54 439.78,236.25 439.78,236.25 C 439.78,236.25 438.35,239.32 439.88,235.00 C 441.42,230.68 447.47,214.44 449.00,210.32 C 450.53,206.19 448.29,210.29 449.08,210.25 Z M 483.25,210.25 C 484.05,210.21 487.05,209.98 488.00,210.02 C 488.95,210.06 487.53,207.59 488.95,210.50 C 490.37,213.41 495.11,224.59 496.50,227.50 C 497.88,230.41 497.25,227.96 497.25,227.96 C 497.25,227.96 496.53,230.37 497.81,227.50 C 499.08,224.63 503.55,213.62 504.88,210.75 C 506.20,207.88 504.81,210.31 505.75,210.25 C 506.69,210.19 510.50,210.40 510.50,210.40 C 510.50,210.40 510.78,207.40 510.85,211.50 C 510.92,215.60 510.98,230.86 510.92,235.00 C 510.87,239.14 510.50,236.34 510.50,236.34 C 510.50,236.34 507.92,236.58 507.25,236.48 C 506.58,236.39 506.68,238.52 506.48,235.75 C 506.27,232.98 506.00,219.86 506.00,219.86 C 506.00,219.86 506.20,218.28 505.00,220.93 C 503.80,223.58 498.78,235.75 498.78,235.75 C 498.78,235.75 497.64,236.32 497.00,236.28 C 496.36,236.24 496.19,237.80 494.96,235.50 C 493.73,233.20 490.69,225.04 489.61,222.50 C 488.53,219.96 488.50,220.27 488.50,220.27 C 488.50,220.27 488.12,220.25 488.12,220.25 C 488.12,220.25 487.79,236.00 487.79,236.00 C 487.79,236.00 487.72,236.58 487.00,236.66 C 486.28,236.75 483.47,236.50 483.47,236.50 C 483.47,236.50 483.17,240.12 483.13,235.75 C 483.09,231.38 483.25,210.25 483.25,210.25 C 483.25,210.25 482.46,210.29 483.25,210.25 Z M 533.31,210.25 C 535.35,210.25 543.01,210.10 545.50,210.25 C 547.99,210.40 547.39,210.65 548.25,211.15 C 549.11,211.65 550.06,212.48 550.65,213.25 C 551.25,214.02 551.64,214.79 551.83,215.75 C 552.01,216.71 551.94,218.13 551.76,219.00 C 551.58,219.87 551.18,220.43 550.75,220.97 C 550.32,221.51 549.50,221.91 549.21,222.25 C 548.92,222.59 549.00,223.00 549.00,223.00 C 549.00,223.00 550.11,223.58 550.70,224.25 C 551.30,224.92 552.22,225.92 552.57,227.00 C 552.91,228.08 552.93,229.67 552.75,230.75 C 552.58,231.83 552.19,232.68 551.52,233.50 C 550.86,234.32 549.88,235.16 548.75,235.69 C 547.62,236.22 547.25,236.53 544.75,236.70 C 542.25,236.88 535.74,236.82 533.75,236.74 C 531.76,236.67 532.83,236.25 532.83,236.25 C 532.83,236.25 532.68,215.83 532.75,211.50 C 532.82,207.17 533.16,210.48 533.25,210.28 C 533.34,210.07 531.27,210.25 533.31,210.25 Z M 574.32,210.25 C 574.94,210.22 578.00,210.10 578.00,210.10 C 578.00,210.10 578.63,206.77 578.76,211.00 C 578.90,215.23 578.85,231.23 578.81,235.50 C 578.77,239.77 578.50,236.60 578.50,236.60 C 578.50,236.60 575.53,236.89 574.75,236.79 C 573.97,236.69 573.85,236.00 573.85,236.00 C 573.85,236.00 574.25,210.30 574.25,210.30 C 574.25,210.30 573.69,210.28 574.32,210.25 Z M 639.40,210.25 C 640.07,210.20 642.40,209.96 643.25,210.08 C 644.10,210.20 642.52,208.22 644.50,210.96 C 646.48,213.69 653.18,223.74 655.14,226.50 C 657.09,229.26 656.25,227.50 656.25,227.50 C 656.25,227.50 656.63,229.50 656.70,226.75 C 656.78,224.00 656.69,211.00 656.69,211.00 C 656.69,211.00 657.16,210.35 657.75,210.23 C 658.34,210.11 659.71,210.21 660.25,210.30 C 660.79,210.38 660.99,210.75 660.99,210.75 C 660.99,210.75 661.26,227.38 661.31,231.50 C 661.36,235.62 661.34,234.67 661.27,235.50 C 661.19,236.33 660.85,236.50 660.85,236.50 C 660.85,236.50 658.52,236.75 657.75,236.68 C 656.98,236.61 658.42,238.95 656.25,236.08 C 654.08,233.20 646.75,222.24 644.75,219.43 C 642.75,216.62 644.25,219.21 644.25,219.21 C 644.25,219.21 643.95,217.24 643.90,220.00 C 643.85,222.76 643.95,235.75 643.95,235.75 C 643.95,235.75 643.78,236.48 643.00,236.60 C 642.22,236.72 639.25,236.46 639.25,236.46 C 639.25,236.46 639.00,238.66 638.95,235.50 C 638.90,232.34 638.90,221.69 638.95,217.50 C 639.00,213.31 639.25,210.37 639.25,210.37 C 639.25,210.37 638.73,210.30 639.40,210.25 Z M 684.31,210.25 C 686.94,210.22 697.14,210.02 700.00,210.10 C 702.86,210.19 701.50,210.76 701.50,210.76 C 701.50,210.76 701.64,212.89 701.52,213.50 C 701.39,214.11 700.75,214.44 700.75,214.44 C 700.75,214.44 695.88,214.46 694.75,214.57 C 693.62,214.68 694.00,215.10 694.00,215.10 C 694.00,215.10 693.97,231.93 693.90,235.50 C 693.83,239.07 693.58,236.50 693.58,236.50 C 693.58,236.50 693.68,236.70 693.00,236.75 C 692.32,236.79 690.19,236.87 689.50,236.78 C 688.81,236.70 688.88,236.25 688.88,236.25 C 688.88,236.25 688.58,215.00 688.58,215.00 C 688.58,215.00 688.60,214.57 687.50,214.48 C 686.40,214.38 683.03,214.55 682.00,214.43 C 680.97,214.31 681.31,213.75 681.31,213.75 C 681.31,213.75 681.53,210.75 681.53,210.75 C 681.53,210.75 683.79,210.34 684.25,210.25 C 684.71,210.17 681.69,210.28 684.31,210.25 Z M 726.81,210.25 C 727.52,210.20 730.16,209.96 731.00,210.00 C 731.84,210.04 730.06,206.33 731.86,210.50 C 733.65,214.67 740.14,230.67 741.78,235.00 C 743.43,239.33 741.71,236.50 741.71,236.50 C 741.71,236.50 737.20,236.50 737.20,236.50 C 737.20,236.50 735.41,232.00 734.79,231.00 C 734.18,230.00 735.22,230.55 733.50,230.51 C 731.78,230.46 726.10,230.61 724.50,230.73 C 722.90,230.85 724.26,230.48 723.92,231.25 C 723.59,232.02 722.87,234.49 722.50,235.37 C 722.13,236.24 721.68,236.50 721.68,236.50 C 721.68,236.50 717.09,236.25 717.09,236.25 C 717.09,236.25 715.46,239.33 717.07,235.00 C 718.68,230.67 725.13,214.42 726.75,210.30 C 728.37,206.17 726.11,210.30 726.81,210.25 Z M 761.57,210.25 C 762.15,210.22 764.27,209.97 765.00,210.09 C 765.73,210.22 765.78,206.77 765.93,211.00 C 766.07,215.23 765.93,231.25 765.85,235.50 C 765.77,239.75 765.45,236.50 765.45,236.50 C 765.45,236.50 762.48,236.76 761.75,236.67 C 761.02,236.59 761.15,240.24 761.05,236.00 C 760.94,231.76 761.04,215.54 761.11,211.25 C 761.19,206.96 761.42,210.45 761.50,210.29 C 761.58,210.12 760.98,210.28 761.57,210.25 Z M 538.25,214.50 C 538.10,214.67 537.65,214.48 537.60,215.50 C 537.56,216.52 538.00,220.62 538.00,220.62 C 538.00,220.62 537.96,220.91 539.00,220.91 C 540.04,220.91 543.12,220.80 544.25,220.62 C 545.38,220.43 545.36,220.21 545.75,219.82 C 546.14,219.42 546.43,218.72 546.56,218.25 C 546.69,217.78 546.66,217.42 546.52,217.00 C 546.38,216.58 546.16,216.13 545.74,215.75 C 545.32,215.37 545.21,214.93 544.00,214.71 C 542.79,214.49 539.46,214.48 538.50,214.44 C 537.54,214.40 538.40,214.32 538.25,214.50 Z M 137.50,216.50 C 137.50,216.50 137.36,215.54 136.84,217.00 C 136.32,218.46 134.73,223.71 134.38,225.25 C 134.03,226.79 134.75,226.26 134.75,226.26 C 134.75,226.26 138.73,226.55 139.75,226.47 C 140.77,226.38 140.89,225.75 140.89,225.75 C 140.89,225.75 138.69,218.79 138.13,217.25 C 137.57,215.71 137.61,216.63 137.51,216.50 C 137.40,216.37 137.50,216.50 137.50,216.50 Z M 729.25,216.74 C 729.25,216.74 729.13,216.08 728.59,217.50 C 728.06,218.92 726.45,223.83 726.03,225.25 C 725.62,226.67 726.10,226.00 726.10,226.00 C 726.10,226.00 725.85,226.31 726.75,226.39 C 727.65,226.47 730.52,226.58 731.50,226.47 C 732.48,226.36 732.62,225.75 732.62,225.75 C 732.62,225.75 730.38,218.75 729.83,217.25 C 729.28,215.75 729.39,216.83 729.30,216.75 C 729.20,216.67 729.25,216.74 729.25,216.74 Z M 219.25,216.88 C 218.69,218.34 216.64,223.94 216.14,225.50 C 215.63,227.06 216.20,226.25 216.20,226.25 C 216.20,226.25 215.87,226.59 217.00,226.59 C 218.13,226.59 223.01,226.25 223.01,226.25 C 223.01,226.25 223.92,226.71 223.45,225.25 C 222.99,223.79 220.89,218.92 220.23,217.50 C 219.57,216.08 219.50,216.75 219.50,216.75 C 219.50,216.75 219.81,215.42 219.25,216.88 Z M 451.50,217.41 C 451.50,217.41 448.38,226.00 448.38,226.00 C 448.38,226.00 447.94,226.27 449.00,226.31 C 450.06,226.35 454.75,226.23 454.75,226.23 C 454.75,226.23 455.62,226.63 455.24,225.25 C 454.87,223.87 453.08,219.27 452.50,217.95 C 451.92,216.63 451.75,217.33 451.75,217.33 C 451.75,217.33 451.50,217.41 451.50,217.41 Z M 14.62,221.50 C 27.33,221.48 77.73,221.26 90.75,221.35 C 103.77,221.45 92.26,221.69 92.75,222.09 C 93.24,222.49 93.72,223.75 93.72,223.75 C 93.72,223.75 93.03,225.31 92.53,225.75 C 92.04,226.19 104.46,226.27 90.75,226.37 C 77.04,226.46 23.83,226.39 10.25,226.34 C -3.33,226.28 9.60,226.26 9.25,226.04 C 8.90,225.82 8.37,225.42 8.17,225.00 C 7.97,224.58 7.93,223.96 8.05,223.50 C 8.16,223.04 8.46,222.57 8.87,222.25 C 9.28,221.93 9.56,221.72 10.50,221.59 C 11.44,221.47 13.81,221.52 14.50,221.50 C 15.19,221.49 1.92,221.52 14.62,221.50 Z M 847.62,221.50 C 861.88,221.49 918.49,221.33 933.00,221.46 C 947.51,221.58 934.67,222.25 934.67,222.25 C 934.67,222.25 935.12,223.96 935.12,224.50 C 935.12,225.04 934.88,225.23 934.65,225.50 C 934.42,225.77 934.23,225.97 933.75,226.14 C 933.27,226.30 947.25,226.45 931.75,226.50 C 916.25,226.54 856.17,226.55 840.75,226.40 C 825.33,226.24 839.58,225.86 839.25,225.55 C 838.92,225.23 838.84,224.88 838.78,224.50 C 838.72,224.12 838.73,223.65 838.89,223.25 C 839.05,222.85 839.40,222.37 839.75,222.11 C 840.10,221.84 839.71,221.75 841.00,221.65 C 842.29,221.55 846.40,221.53 847.50,221.50 C 848.60,221.48 833.38,221.51 847.62,221.50 Z M 541.75,225.50 C 541.21,225.51 539.38,225.48 538.75,225.59 C 538.12,225.71 538.00,226.18 538.00,226.18 C 538.00,226.18 537.74,231.75 537.74,231.75 C 537.74,231.75 537.46,232.44 538.75,232.48 C 540.04,232.52 544.20,232.19 545.50,231.98 C 546.80,231.78 546.19,231.62 546.52,231.25 C 546.85,230.88 547.32,230.33 547.47,229.75 C 547.61,229.17 547.63,228.38 547.39,227.75 C 547.14,227.12 546.48,226.37 546.00,226.00 C 545.52,225.63 545.17,225.61 544.50,225.53 C 543.83,225.45 542.46,225.50 542.00,225.50 C 541.54,225.49 542.29,225.48 541.75,225.50 Z"/>
</svg>
